<?xml version="1.0" encoding="UTF-8"?>
<svg width="512" height="512" viewBox="0 0 512 512" fill="none" xmlns="http://www.w3.org/2000/svg">
  <!-- Background -->
  <rect width="512" height="512" rx="64" fill="#8B5A2B" />
  
  <!-- Board grid pattern -->
  <g stroke="#000" stroke-width="2">
    <!-- Horizontal lines -->
    <line x1="80" y1="80" x2="432" y2="80" />
    <line x1="80" y1="128" x2="432" y2="128" />
    <line x1="80" y1="176" x2="432" y2="176" />
    <line x1="80" y1="224" x2="432" y2="224" />
    <line x1="80" y1="272" x2="432" y2="272" />
    <line x1="80" y1="320" x2="432" y2="320" />
    <line x1="80" y1="368" x2="432" y2="368" />
    <line x1="80" y1="416" x2="432" y2="416" />
    
    <!-- Vertical lines -->
    <line x1="80" y1="80" x2="80" y2="416" />
    <line x1="128" y1="80" x2="128" y2="416" />
    <line x1="176" y1="80" x2="176" y2="416" />
    <line x1="224" y1="80" x2="224" y2="416" />
    <line x1="272" y1="80" x2="272" y2="416" />
    <line x1="320" y1="80" x2="320" y2="416" />
    <line x1="368" y1="80" x2="368" y2="416" />
    <line x1="416" y1="80" x2="416" y2="416" />
  </g>
  
  <!-- Dot markers -->
  <circle cx="128" cy="128" r="4" fill="#000" />
  <circle cx="128" cy="368" r="4" fill="#000" />
  <circle cx="368" cy="128" r="4" fill="#000" />
  <circle cx="368" cy="368" r="4" fill="#000" />
  <circle cx="256" cy="256" r="4" fill="#000" />
  
  <!-- Black stones -->
  <circle cx="224" cy="128" r="16" fill="#000" stroke="#000" stroke-width="1" />
  <circle cx="272" cy="176" r="16" fill="#000" stroke="#000" stroke-width="1" />
  <circle cx="176" cy="272" r="16" fill="#000" stroke="#000" stroke-width="1" />
  <circle cx="224" cy="224" r="16" fill="#000" stroke="#000" stroke-width="1" />
  <circle cx="272" cy="272" r="16" fill="#000" stroke="#000" stroke-width="1" />
  
  <!-- White stones -->
  <circle cx="176" cy="176" r="16" fill="#FFF" stroke="#000" stroke-width="1" />
  <circle cx="224" cy="176" r="16" fill="#FFF" stroke="#000" stroke-width="1" />
  <circle cx="272" cy="128" r="16" fill="#FFF" stroke="#000" stroke-width="1" />
  <circle cx="224" cy="272" r="16" fill="#FFF" stroke="#000" stroke-width="1" />
  <circle cx="176" cy="224" r="16" fill="#FFF" stroke="#000" stroke-width="1" />
  
  <!-- Winning line -->
  <line x1="272" y1="128" x2="272" y2="272" stroke="#FF0000" stroke-width="4" stroke-opacity="0.6" stroke-linecap="round" />
</svg> 