<svg width="640" height="360" viewBox="0 0 640 360" xmlns="http://www.w3.org/2000/svg">
  <!-- 背景 -->
  <rect width="100%" height="100%" fill="#111827" />
  
  <!-- 装饰元素 -->
  <circle cx="80" cy="60" r="40" fill="#1F2937" />
  <circle cx="560" cy="300" r="60" fill="#1F2937" />
  <circle cx="500" cy="80" r="25" fill="#374151" />
  <circle cx="140" cy="300" r="30" fill="#374151" />
  
  <!-- 俄罗斯方块游戏板 -->
  <rect x="220" y="60" width="200" height="180" fill="#1F2937" stroke="#4B5563" stroke-width="2" />
  
  <!-- 方块形状 -->
  <!-- L形状 -->
  <rect x="260" y="80" width="20" height="20" fill="#3B82F6" stroke="#2563EB" stroke-width="1" />
  <rect x="260" y="100" width="20" height="20" fill="#3B82F6" stroke="#2563EB" stroke-width="1" />
  <rect x="260" y="120" width="20" height="20" fill="#3B82F6" stroke="#2563EB" stroke-width="1" />
  <rect x="280" y="120" width="20" height="20" fill="#3B82F6" stroke="#2563EB" stroke-width="1" />
  
  <!-- I形状 -->
  <rect x="320" y="80" width="20" height="20" fill="#EF4444" stroke="#DC2626" stroke-width="1" />
  <rect x="320" y="100" width="20" height="20" fill="#EF4444" stroke="#DC2626" stroke-width="1" />
  <rect x="320" y="120" width="20" height="20" fill="#EF4444" stroke="#DC2626" stroke-width="1" />
  <rect x="320" y="140" width="20" height="20" fill="#EF4444" stroke="#DC2626" stroke-width="1" />
  
  <!-- T形状 -->
  <rect x="360" y="100" width="20" height="20" fill="#10B981" stroke="#059669" stroke-width="1" />
  <rect x="340" y="120" width="20" height="20" fill="#10B981" stroke="#059669" stroke-width="1" />
  <rect x="360" y="120" width="20" height="20" fill="#10B981" stroke="#059669" stroke-width="1" />
  <rect x="380" y="120" width="20" height="20" fill="#10B981" stroke="#059669" stroke-width="1" />
  
  <!-- 底部已堆积方块 -->
  <rect x="240" y="160" width="20" height="20" fill="#8B5CF6" stroke="#7C3AED" stroke-width="1" />
  <rect x="260" y="160" width="20" height="20" fill="#8B5CF6" stroke="#7C3AED" stroke-width="1" />
  <rect x="280" y="160" width="20" height="20" fill="#F59E0B" stroke="#D97706" stroke-width="1" />
  <rect x="300" y="160" width="20" height="20" fill="#F59E0B" stroke="#D97706" stroke-width="1" />
  <rect x="320" y="160" width="20" height="20" fill="#F59E0B" stroke="#D97706" stroke-width="1" />
  <rect x="340" y="160" width="20" height="20" fill="#EC4899" stroke="#DB2777" stroke-width="1" />
  <rect x="360" y="160" width="20" height="20" fill="#EC4899" stroke="#DB2777" stroke-width="1" />
  <rect x="380" y="160" width="20" height="20" fill="#EC4899" stroke="#DB2777" stroke-width="1" />
  
  <rect x="240" y="180" width="20" height="20" fill="#8B5CF6" stroke="#7C3AED" stroke-width="1" />
  <rect x="260" y="180" width="20" height="20" fill="#8B5CF6" stroke="#7C3AED" stroke-width="1" />
  <rect x="280" y="180" width="20" height="20" fill="#8B5CF6" stroke="#7C3AED" stroke-width="1" />
  <rect x="300" y="180" width="20" height="20" fill="#F59E0B" stroke="#D97706" stroke-width="1" />
  <rect x="320" y="180" width="20" height="20" fill="#F59E0B" stroke="#D97706" stroke-width="1" />
  <rect x="340" y="180" width="20" height="20" fill="#EC4899" stroke="#DB2777" stroke-width="1" />
  <rect x="360" y="180" width="20" height="20" fill="#EC4899" stroke="#DB2777" stroke-width="1" />
  <rect x="380" y="180" width="20" height="20" fill="#EF4444" stroke="#DC2626" stroke-width="1" />
  
  <!-- 标题 -->
  <text x="320" y="270" font-family="Arial, sans-serif" font-size="28" font-weight="bold" text-anchor="middle" fill="white">Tetris</text>
  
  <!-- 按钮 -->
  <rect x="240" y="290" width="160" height="50" rx="25" fill="#10B981" />
  <text x="320" y="325" font-family="Arial, sans-serif" font-size="18" font-weight="bold" text-anchor="middle" fill="white">Play Now</text>
</svg> 